<mxfile host="app.diagrams.net" modified="2021-12-01T05:20:37.342Z" agent="5.0 (Macintosh; Intel Mac OS X 10_15_7) AppleWebKit/537.36 (KHTML, like Gecko) Chrome/96.0.4664.45 Safari/537.36" etag="5lKJxhWfPqxz0Pz2q64L" version="15.8.8" type="github">
  <diagram id="JEB7V9WxAwI6BwEsu1ca" name="Page-1">
    <mxGraphModel dx="951" dy="745" grid="1" gridSize="10" guides="1" tooltips="1" connect="1" arrows="1" fold="1" page="1" pageScale="1" pageWidth="850" pageHeight="1100" math="0" shadow="0">
      <root>
        <mxCell id="0" />
        <mxCell id="1" parent="0" />
        <mxCell id="L6Bi-9Ns1P4UmB9HN_Kb-2" value="" style="sketch=0;pointerEvents=1;shadow=0;dashed=0;html=1;strokeColor=none;fillColor=#505050;labelPosition=center;verticalLabelPosition=bottom;verticalAlign=top;outlineConnect=0;align=center;shape=mxgraph.office.servers.server_generic;" vertex="1" parent="1">
          <mxGeometry x="440" y="290" width="80" height="120" as="geometry" />
        </mxCell>
        <mxCell id="L6Bi-9Ns1P4UmB9HN_Kb-12" style="edgeStyle=orthogonalEdgeStyle;rounded=1;orthogonalLoop=1;jettySize=auto;html=1;entryX=0.393;entryY=-0.022;entryDx=0;entryDy=0;entryPerimeter=0;strokeWidth=2;" edge="1" parent="1" source="L6Bi-9Ns1P4UmB9HN_Kb-5" target="L6Bi-9Ns1P4UmB9HN_Kb-9">
          <mxGeometry relative="1" as="geometry" />
        </mxCell>
        <mxCell id="L6Bi-9Ns1P4UmB9HN_Kb-13" value="hdmi" style="edgeLabel;html=1;align=center;verticalAlign=middle;resizable=0;points=[];" vertex="1" connectable="0" parent="L6Bi-9Ns1P4UmB9HN_Kb-12">
          <mxGeometry x="-0.3172" y="-2" relative="1" as="geometry">
            <mxPoint as="offset" />
          </mxGeometry>
        </mxCell>
        <mxCell id="L6Bi-9Ns1P4UmB9HN_Kb-5" value="" style="sketch=0;pointerEvents=1;shadow=0;dashed=0;html=1;strokeColor=none;fillColor=#505050;labelPosition=center;verticalLabelPosition=bottom;verticalAlign=top;outlineConnect=0;align=center;shape=mxgraph.office.devices.tv;" vertex="1" parent="1">
          <mxGeometry x="270" y="70" width="130" height="110" as="geometry" />
        </mxCell>
        <mxCell id="L6Bi-9Ns1P4UmB9HN_Kb-18" style="edgeStyle=orthogonalEdgeStyle;rounded=1;orthogonalLoop=1;jettySize=auto;html=1;entryX=0.5;entryY=0;entryDx=0;entryDy=0;strokeWidth=2;" edge="1" parent="1" source="L6Bi-9Ns1P4UmB9HN_Kb-9" target="L6Bi-9Ns1P4UmB9HN_Kb-16">
          <mxGeometry relative="1" as="geometry" />
        </mxCell>
        <mxCell id="L6Bi-9Ns1P4UmB9HN_Kb-9" value="" style="verticalLabelPosition=bottom;dashed=0;shadow=0;html=1;align=center;verticalAlign=top;shape=mxgraph.cabinets.overcurrent_relay_1_32a;" vertex="1" parent="1">
          <mxGeometry y="370" width="150" height="90" as="geometry" />
        </mxCell>
        <mxCell id="L6Bi-9Ns1P4UmB9HN_Kb-10" value="" style="shape=image;html=1;verticalAlign=top;verticalLabelPosition=bottom;labelBackgroundColor=#ffffff;imageAspect=0;aspect=fixed;image=https://cdn1.iconfinder.com/data/icons/computer-hardware-glyphs-vol-1/52/dongle__usb__transfer__receiver__plug__connector__hardware-128.png;rotation=40;" vertex="1" parent="1">
          <mxGeometry x="161.15" y="360" width="73.62" height="73.62" as="geometry" />
        </mxCell>
        <mxCell id="L6Bi-9Ns1P4UmB9HN_Kb-11" value="" style="sketch=0;pointerEvents=1;shadow=0;dashed=0;html=1;strokeColor=none;fillColor=#505050;labelPosition=center;verticalLabelPosition=bottom;verticalAlign=top;outlineConnect=0;align=center;shape=mxgraph.office.devices.tv;" vertex="1" parent="1">
          <mxGeometry x="560" y="70" width="130" height="110" as="geometry" />
        </mxCell>
        <mxCell id="L6Bi-9Ns1P4UmB9HN_Kb-14" value="FireStick" style="text;html=1;strokeColor=none;fillColor=none;align=center;verticalAlign=middle;whiteSpace=wrap;rounded=0;" vertex="1" parent="1">
          <mxGeometry x="174.77" y="403.62" width="60" height="30" as="geometry" />
        </mxCell>
        <mxCell id="L6Bi-9Ns1P4UmB9HN_Kb-15" value="Yamaha" style="text;html=1;strokeColor=none;fillColor=none;align=center;verticalAlign=middle;whiteSpace=wrap;rounded=0;" vertex="1" parent="1">
          <mxGeometry x="30" y="400" width="60" height="30" as="geometry" />
        </mxCell>
        <mxCell id="L6Bi-9Ns1P4UmB9HN_Kb-16" value="Speaker" style="strokeColor=#dddddd;shadow=1;strokeWidth=1;rounded=1;absoluteArcSize=1;arcSize=2;labelPosition=center;verticalLabelPosition=middle;align=center;verticalAlign=bottom;spacingLeft=0;fontColor=#999999;fontSize=12;whiteSpace=wrap;spacingBottom=2;" vertex="1" parent="1">
          <mxGeometry x="20" y="610" width="70" height="85" as="geometry" />
        </mxCell>
        <mxCell id="L6Bi-9Ns1P4UmB9HN_Kb-17" value="" style="sketch=0;dashed=0;connectable=0;html=1;fillColor=#757575;strokeColor=none;shape=mxgraph.gcp2.speaker;part=1;" vertex="1" parent="L6Bi-9Ns1P4UmB9HN_Kb-16">
          <mxGeometry x="0.5" width="35" height="50" relative="1" as="geometry">
            <mxPoint x="-17.5" y="10" as="offset" />
          </mxGeometry>
        </mxCell>
      </root>
    </mxGraphModel>
  </diagram>
</mxfile>
